<svg width="219" height="33" viewBox="0 0 219 33" fill="none" xmlns="http://www.w3.org/2000/svg">
<path d="M0.648 23.52L2.328 23.28V12.288L0.648 12.048V11.568H4.728V13.776C5.304 13.024 5.952 12.432 6.672 12C7.408 11.568 8.2 11.352 9.048 11.352C10.024 11.352 10.816 11.568 11.424 12C12.048 12.416 12.44 13.048 12.6 13.896C13.176 13.112 13.832 12.496 14.568 12.048C15.304 11.584 16.112 11.352 16.992 11.352C18.128 11.352 19.008 11.64 19.632 12.216C20.272 12.776 20.592 13.632 20.592 14.784V23.28L22.272 23.52V24H16.752V23.52L18.192 23.28V14.832C18.192 13.984 18.04 13.336 17.736 12.888C17.432 12.44 16.936 12.216 16.248 12.216C15.592 12.216 14.952 12.44 14.328 12.888C13.72 13.336 13.168 13.912 12.672 14.616V23.28L14.112 23.52V24H8.808V23.52L10.248 23.28V14.832C10.248 13.984 10.096 13.336 9.792 12.888C9.488 12.44 8.992 12.216 8.304 12.216C7.648 12.216 7.008 12.44 6.384 12.888C5.776 13.336 5.224 13.912 4.728 14.616V23.28L6.168 23.52V24H0.648V23.52ZM30.2789 24.24C29.0949 24.24 28.0229 23.976 27.0629 23.448C26.1029 22.904 25.3429 22.144 24.7829 21.168C24.2229 20.192 23.9429 19.064 23.9429 17.784C23.9429 16.504 24.2149 15.384 24.7589 14.424C25.3189 13.448 26.0629 12.696 26.9909 12.168C27.9349 11.624 28.9829 11.352 30.1349 11.352C31.1429 11.352 32.0469 11.576 32.8469 12.024C33.6469 12.472 34.2709 13.096 34.7189 13.896C35.1669 14.68 35.3989 15.584 35.4149 16.608H26.5829V18.984C26.5829 20.392 26.8949 21.536 27.5189 22.416C28.1589 23.28 29.0789 23.712 30.2789 23.712C31.3829 23.712 32.3589 23.4 33.2069 22.776C34.0549 22.152 34.5749 21.344 34.7669 20.352H35.3189C35.0949 21.536 34.5269 22.48 33.6149 23.184C32.7029 23.888 31.5909 24.24 30.2789 24.24ZM32.7749 16.008C32.7749 14.616 32.5589 13.584 32.1269 12.912C31.6949 12.224 31.0229 11.88 30.1109 11.88C29.0389 11.88 28.2069 12.256 27.6149 13.008C27.0229 13.76 26.6869 14.76 26.6069 16.008H32.7749ZM37.2121 23.52L38.8921 23.28V12.288L37.2121 12.048V11.568H41.2921V13.416C42.3001 12.04 43.4361 11.352 44.7001 11.352C45.3081 11.352 45.8441 11.512 46.3081 11.832C46.7721 12.136 47.0041 12.576 47.0041 13.152C47.0041 13.568 46.8681 13.92 46.5961 14.208C46.3241 14.48 45.9641 14.616 45.5161 14.616C45.0041 14.616 44.5881 14.416 44.2681 14.016C44.4441 13.792 44.5321 13.552 44.5321 13.296C44.5321 13.024 44.4361 12.808 44.2441 12.648C44.0681 12.472 43.8281 12.384 43.5241 12.384C43.1881 12.384 42.8441 12.544 42.4921 12.864C42.1401 13.168 41.7401 13.648 41.2921 14.304V23.28L43.2121 23.52V24H37.2121V23.52ZM50.5972 8.784C50.1492 8.784 49.7652 8.632 49.4452 8.328C49.1252 8.008 48.9652 7.624 48.9652 7.176C48.9652 6.728 49.1172 6.352 49.4212 6.048C49.7412 5.744 50.1332 5.592 50.5972 5.592C51.0292 5.592 51.3972 5.744 51.7012 6.048C52.0052 6.352 52.1572 6.728 52.1572 7.176C52.1572 7.624 52.0052 8.008 51.7012 8.328C51.3972 8.632 51.0292 8.784 50.5972 8.784ZM48.0532 24V23.52L49.7332 23.28V12.312L48.0532 12.072V11.592H52.1332V23.28L53.8132 23.52V24H48.0532ZM61.2867 24.24C60.1507 24.24 59.1507 23.976 58.2867 23.448C57.4227 22.904 56.7507 22.152 56.2707 21.192C55.7907 20.216 55.5507 19.08 55.5507 17.784C55.5507 16.488 55.7907 15.36 56.2707 14.4C56.7507 13.424 57.4227 12.672 58.2867 12.144C59.1507 11.616 60.1507 11.352 61.2867 11.352C62.2147 11.352 63.0227 11.6 63.7107 12.096C64.3987 12.576 64.9427 13.24 65.3428 14.088V5.52L63.6627 5.28V4.8H67.7427V23.28L69.4228 23.52V24H65.3428V21.504C64.9427 22.352 64.3987 23.024 63.7107 23.52C63.0227 24 62.2147 24.24 61.2867 24.24ZM61.5267 23.64C62.2307 23.64 62.8627 23.44 63.4227 23.04C63.9987 22.624 64.4547 22.08 64.7908 21.408C65.1427 20.72 65.3267 19.976 65.3428 19.176V16.416C65.3267 15.616 65.1427 14.88 64.7908 14.208C64.4547 13.52 63.9987 12.976 63.4227 12.576C62.8627 12.16 62.2307 11.952 61.5267 11.952C59.3027 11.952 58.1907 13.496 58.1907 16.584V18.984C58.1907 22.088 59.3027 23.64 61.5267 23.64ZM73.3332 8.784C72.8852 8.784 72.5012 8.632 72.1812 8.328C71.8612 8.008 71.7012 7.624 71.7012 7.176C71.7012 6.728 71.8532 6.352 72.1572 6.048C72.4772 5.744 72.8692 5.592 73.3332 5.592C73.7652 5.592 74.1332 5.744 74.4372 6.048C74.7412 6.352 74.8932 6.728 74.8932 7.176C74.8932 7.624 74.7412 8.008 74.4372 8.328C74.1332 8.632 73.7652 8.784 73.3332 8.784ZM70.7892 24V23.52L72.4692 23.28V12.312L70.7892 12.072V11.592H74.8692V23.28L76.5492 23.52V24H70.7892ZM81.8627 24.24C80.8387 24.24 79.9987 23.976 79.3427 23.448C78.6867 22.904 78.3587 22.104 78.3587 21.048C78.3587 19.544 78.9907 18.48 80.2547 17.856C81.5187 17.216 82.9827 16.896 84.6467 16.896H86.2547V15.048C86.2547 14.216 86.1587 13.576 85.9667 13.128C85.7907 12.664 85.5107 12.344 85.1267 12.168C84.7427 11.976 84.2227 11.88 83.5667 11.88C82.8147 11.88 82.2547 12.032 81.8867 12.336C81.5187 12.624 81.3347 13.016 81.3347 13.512C81.3347 13.976 81.5587 14.28 82.0067 14.424C82.0067 14.824 81.8547 15.176 81.5507 15.48C81.2467 15.784 80.8867 15.936 80.4707 15.936C80.0227 15.936 79.6627 15.816 79.3907 15.576C79.1187 15.32 78.9827 14.936 78.9827 14.424C78.9827 13.496 79.4467 12.752 80.3747 12.192C81.3027 11.632 82.4627 11.352 83.8547 11.352C87.0547 11.352 88.6547 12.744 88.6547 15.528V22.392C88.6547 22.744 88.7267 23.016 88.8707 23.208C89.0307 23.384 89.2547 23.472 89.5427 23.472C89.8147 23.472 90.0307 23.384 90.1907 23.208C90.3507 23.016 90.4307 22.76 90.4307 22.44H90.9347C90.9347 23 90.7507 23.44 90.3827 23.76C90.0307 24.08 89.5347 24.24 88.8947 24.24C88.1587 24.24 87.5347 24.032 87.0227 23.616C86.5267 23.184 86.2707 22.52 86.2547 21.624C85.8707 22.44 85.2787 23.08 84.4787 23.544C83.6947 24.008 82.8227 24.24 81.8627 24.24ZM83.1827 23.184C83.6147 23.184 84.0547 23.056 84.5027 22.8C84.9667 22.544 85.3587 22.176 85.6787 21.696C85.9987 21.2 86.1907 20.608 86.2547 19.92V17.424H84.6467C83.3347 17.424 82.3507 17.72 81.6947 18.312C81.0547 18.888 80.7347 19.704 80.7347 20.76C80.7347 21.64 80.9427 22.264 81.3587 22.632C81.7747 23 82.3827 23.184 83.1827 23.184ZM91.7199 23.52L93.3999 23.28V12.288L91.7199 12.048V11.568H95.7999V14.16C96.3919 13.296 97.0879 12.616 97.8879 12.12C98.6879 11.608 99.5519 11.352 100.48 11.352C101.632 11.352 102.536 11.64 103.192 12.216C103.864 12.792 104.2 13.648 104.2 14.784V23.28L105.88 23.52V24H100.36V23.52L101.8 23.28V14.832C101.8 14 101.632 13.36 101.296 12.912C100.96 12.448 100.44 12.216 99.7359 12.216C98.9999 12.216 98.2879 12.488 97.5999 13.032C96.9279 13.56 96.3279 14.216 95.7999 15V23.28L97.2399 23.52V24H91.7199V23.52ZM113.754 24.24C112.602 24.24 111.554 23.976 110.61 23.448C109.666 22.904 108.914 22.144 108.354 21.168C107.81 20.176 107.538 19.048 107.538 17.784C107.538 16.456 107.826 15.304 108.402 14.328C108.994 13.352 109.762 12.616 110.706 12.12C111.65 11.608 112.666 11.352 113.754 11.352C114.666 11.352 115.498 11.512 116.25 11.832C117.002 12.136 117.594 12.568 118.026 13.128C118.474 13.688 118.698 14.32 118.698 15.024C118.698 15.552 118.562 15.96 118.29 16.248C118.018 16.52 117.658 16.656 117.21 16.656C116.778 16.656 116.418 16.512 116.13 16.224C115.842 15.936 115.698 15.576 115.698 15.144C115.938 14.984 116.106 14.808 116.202 14.616C116.298 14.424 116.346 14.184 116.346 13.896C116.346 13.304 116.106 12.824 115.626 12.456C115.162 12.072 114.538 11.88 113.754 11.88C112.602 11.88 111.714 12.296 111.09 13.128C110.482 13.944 110.178 15.096 110.178 16.584V18.984C110.178 20.408 110.474 21.552 111.066 22.416C111.674 23.28 112.57 23.712 113.754 23.712C114.842 23.712 115.786 23.408 116.586 22.8C117.402 22.176 117.906 21.36 118.098 20.352H118.65C118.426 21.536 117.866 22.48 116.97 23.184C116.09 23.888 115.018 24.24 113.754 24.24ZM125.639 24.24C124.487 24.24 123.575 23.952 122.903 23.376C122.247 22.8 121.919 21.944 121.919 20.808V12.288L120.239 12.048V11.568H124.319V20.76C124.319 21.576 124.487 22.216 124.823 22.68C125.159 23.144 125.679 23.376 126.383 23.376C127.119 23.376 127.823 23.136 128.495 22.656C129.183 22.16 129.791 21.552 130.319 20.832V12.288L128.639 12.048V11.568H132.719V23.28L134.399 23.52V24H130.319V21.696C129.743 22.496 129.047 23.12 128.231 23.568C127.431 24.016 126.567 24.24 125.639 24.24ZM135.843 23.52L137.523 23.28V12.288L135.843 12.048V11.568H139.923V13.416C140.931 12.04 142.067 11.352 143.331 11.352C143.939 11.352 144.475 11.512 144.939 11.832C145.403 12.136 145.635 12.576 145.635 13.152C145.635 13.568 145.499 13.92 145.227 14.208C144.955 14.48 144.595 14.616 144.147 14.616C143.635 14.616 143.219 14.416 142.899 14.016C143.075 13.792 143.163 13.552 143.163 13.296C143.163 13.024 143.067 12.808 142.875 12.648C142.699 12.472 142.459 12.384 142.155 12.384C141.819 12.384 141.475 12.544 141.123 12.864C140.771 13.168 140.371 13.648 139.923 14.304V23.28L141.843 23.52V24H135.843V23.52ZM153.146 24.24C151.962 24.24 150.89 23.976 149.93 23.448C148.97 22.904 148.21 22.144 147.65 21.168C147.09 20.192 146.81 19.064 146.81 17.784C146.81 16.504 147.082 15.384 147.626 14.424C148.186 13.448 148.93 12.696 149.858 12.168C150.802 11.624 151.85 11.352 153.002 11.352C154.01 11.352 154.914 11.576 155.714 12.024C156.514 12.472 157.138 13.096 157.586 13.896C158.034 14.68 158.266 15.584 158.282 16.608H149.45V18.984C149.45 20.392 149.762 21.536 150.386 22.416C151.026 23.28 151.946 23.712 153.146 23.712C154.25 23.712 155.226 23.4 156.074 22.776C156.922 22.152 157.442 21.344 157.634 20.352H158.186C157.962 21.536 157.394 22.48 156.482 23.184C155.57 23.888 154.458 24.24 153.146 24.24ZM155.642 16.008C155.642 14.616 155.426 13.584 154.994 12.912C154.562 12.224 153.89 11.88 152.978 11.88C151.906 11.88 151.074 12.256 150.482 13.008C149.89 13.76 149.554 14.76 149.474 16.008H155.642ZM159.935 30.312L161.615 30.072V12.312L159.935 12.072V11.592H164.015V14.112C164.415 13.248 164.951 12.576 165.623 12.096C166.311 11.6 167.127 11.352 168.071 11.352C169.207 11.352 170.207 11.624 171.071 12.168C171.935 12.696 172.607 13.448 173.087 14.424C173.567 15.384 173.807 16.512 173.807 17.808C173.807 19.104 173.567 20.24 173.087 21.216C172.607 22.176 171.935 22.92 171.071 23.448C170.207 23.976 169.207 24.24 168.071 24.24C167.127 24.24 166.311 24 165.623 23.52C164.951 23.024 164.415 22.352 164.015 21.504V30.072L166.271 30.312V30.792H159.935V30.312ZM167.831 23.64C170.055 23.64 171.167 22.096 171.167 19.008V16.608C171.167 13.504 170.055 11.952 167.831 11.952C167.127 11.952 166.487 12.16 165.911 12.576C165.335 12.976 164.879 13.52 164.543 14.208C164.207 14.896 164.031 15.64 164.015 16.44V19.008C164.015 19.824 164.175 20.592 164.495 21.312C164.831 22.016 165.287 22.584 165.863 23.016C166.455 23.432 167.111 23.64 167.831 23.64ZM179.638 24.24C178.614 24.24 177.774 23.976 177.118 23.448C176.462 22.904 176.134 22.104 176.134 21.048C176.134 19.544 176.766 18.48 178.03 17.856C179.294 17.216 180.758 16.896 182.422 16.896H184.03V15.048C184.03 14.216 183.934 13.576 183.742 13.128C183.566 12.664 183.286 12.344 182.902 12.168C182.518 11.976 181.998 11.88 181.342 11.88C180.59 11.88 180.03 12.032 179.662 12.336C179.294 12.624 179.11 13.016 179.11 13.512C179.11 13.976 179.334 14.28 179.782 14.424C179.782 14.824 179.63 15.176 179.326 15.48C179.022 15.784 178.662 15.936 178.246 15.936C177.798 15.936 177.438 15.816 177.166 15.576C176.894 15.32 176.758 14.936 176.758 14.424C176.758 13.496 177.222 12.752 178.15 12.192C179.078 11.632 180.238 11.352 181.63 11.352C184.83 11.352 186.43 12.744 186.43 15.528V22.392C186.43 22.744 186.502 23.016 186.646 23.208C186.806 23.384 187.03 23.472 187.318 23.472C187.59 23.472 187.806 23.384 187.966 23.208C188.126 23.016 188.206 22.76 188.206 22.44H188.71C188.71 23 188.526 23.44 188.158 23.76C187.806 24.08 187.31 24.24 186.67 24.24C185.934 24.24 185.31 24.032 184.798 23.616C184.302 23.184 184.046 22.52 184.03 21.624C183.646 22.44 183.054 23.08 182.254 23.544C181.47 24.008 180.598 24.24 179.638 24.24ZM180.958 23.184C181.39 23.184 181.83 23.056 182.278 22.8C182.742 22.544 183.134 22.176 183.454 21.696C183.774 21.2 183.966 20.608 184.03 19.92V17.424H182.422C181.11 17.424 180.126 17.72 179.47 18.312C178.83 18.888 178.51 19.704 178.51 20.76C178.51 21.64 178.718 22.264 179.134 22.632C179.55 23 180.158 23.184 180.958 23.184ZM189.495 23.52L191.175 23.28V12.288L189.495 12.048V11.568H193.575V13.416C194.583 12.04 195.719 11.352 196.983 11.352C197.591 11.352 198.127 11.512 198.591 11.832C199.055 12.136 199.287 12.576 199.287 13.152C199.287 13.568 199.151 13.92 198.879 14.208C198.607 14.48 198.247 14.616 197.799 14.616C197.287 14.616 196.871 14.416 196.551 14.016C196.727 13.792 196.815 13.552 196.815 13.296C196.815 13.024 196.719 12.808 196.527 12.648C196.351 12.472 196.111 12.384 195.807 12.384C195.471 12.384 195.127 12.544 194.775 12.864C194.423 13.168 194.023 13.648 193.575 14.304V23.28L195.495 23.52V24H189.495V23.52ZM202.88 8.784C202.432 8.784 202.048 8.632 201.728 8.328C201.408 8.008 201.248 7.624 201.248 7.176C201.248 6.728 201.4 6.352 201.704 6.048C202.024 5.744 202.416 5.592 202.88 5.592C203.312 5.592 203.68 5.744 203.984 6.048C204.288 6.352 204.44 6.728 204.44 7.176C204.44 7.624 204.288 8.008 203.984 8.328C203.68 8.632 203.312 8.784 202.88 8.784ZM200.336 24V23.52L202.016 23.28V12.312L200.336 12.072V11.592H204.416V23.28L206.096 23.52V24H200.336ZM212.562 24.24C211.25 24.24 210.154 23.96 209.274 23.4C208.394 22.84 207.954 22.112 207.954 21.216C207.954 20.752 208.074 20.392 208.314 20.136C208.57 19.864 208.906 19.728 209.322 19.728C209.642 19.728 209.914 19.808 210.138 19.968C210.362 20.128 210.522 20.352 210.618 20.64C210.266 21.024 210.09 21.432 210.09 21.864C210.09 22.36 210.314 22.792 210.762 23.16C211.21 23.528 211.81 23.712 212.562 23.712C213.57 23.712 214.394 23.488 215.034 23.04C215.674 22.576 215.994 21.96 215.994 21.192C215.994 20.744 215.858 20.408 215.586 20.184C215.314 19.96 214.786 19.704 214.002 19.416L210.378 18.096C208.954 17.584 208.242 16.632 208.242 15.24C208.242 14.104 208.634 13.176 209.418 12.456C210.202 11.72 211.282 11.352 212.658 11.352C213.794 11.352 214.762 11.616 215.562 12.144C216.378 12.656 216.786 13.392 216.786 14.352C216.786 14.736 216.682 15.048 216.474 15.288C216.266 15.512 215.994 15.624 215.658 15.624C215.322 15.624 215.042 15.536 214.818 15.36C214.61 15.168 214.506 14.912 214.506 14.592C214.714 14.432 214.858 14.264 214.938 14.088C215.018 13.896 215.058 13.672 215.058 13.416C215.058 12.968 214.858 12.6 214.458 12.312C214.074 12.024 213.474 11.88 212.658 11.88C211.954 11.88 211.346 11.992 210.834 12.216C210.338 12.424 209.962 12.704 209.706 13.056C209.45 13.408 209.322 13.768 209.322 14.136C209.322 14.52 209.458 14.824 209.73 15.048C210.018 15.272 210.538 15.52 211.29 15.792L214.65 16.992C215.434 17.28 216.026 17.68 216.426 18.192C216.826 18.704 217.026 19.368 217.026 20.184C217.026 21.352 216.658 22.32 215.922 23.088C215.186 23.856 214.066 24.24 212.562 24.24Z" fill="#583115"/>
</svg>
