<svg width="120" height="109" viewBox="0 0 120 109" fill="none" xmlns="http://www.w3.org/2000/svg">
<path d="M82.4237 54.4987C82.2652 43.372 74.1525 33.9903 63.0212 32.4011C52.2068 30.8119 41.8703 37.8073 38.6881 47.9811C35.189 58.6326 40.9144 70.2371 50.9339 74.8488C60.9534 79.4579 72.7237 75.6434 78.7661 66.742C81.1508 63.0859 82.2627 58.7936 82.4237 54.5013C82.4237 54.0235 81.7873 54.0235 81.7873 54.5013C81.6288 66.4252 72.0847 75.9627 60.1585 76.1211C48.2297 76.2795 38.6881 66.1058 38.5297 54.5013C38.3712 42.5774 48.5492 33.0398 60.1585 32.8814C72.0873 32.723 81.6288 42.8968 81.7873 54.5013C81.6288 54.9791 82.4237 54.9791 82.4237 54.5013V54.4987Z" fill="#78573F"/>
<path d="M60.3195 32.5595V9.19208C60.3195 8.71431 59.6831 8.71431 59.6831 9.19208V32.5595C59.6831 32.8789 60.3195 32.8789 60.3195 32.5595Z" fill="#78573F"/>
<path d="M60.3195 6.96673V3.9468C60.3195 3.46903 59.6831 3.46903 59.6831 3.9468V6.96673C59.6831 7.44195 60.3195 7.44195 60.3195 6.96673Z" fill="#78573F"/>
<path d="M41.0754 43.211C34.2381 39.2381 27.5568 35.421 20.7195 31.4481C20.4 31.2897 20.0831 31.7675 20.4 32.0843C27.2373 36.0598 33.9187 39.8743 40.7559 43.8472C41.0754 44.0056 41.5508 43.372 41.0754 43.211Z" fill="#78573F"/>
<path d="M19.1271 30.4926C18.3322 30.0148 17.3788 29.5396 16.5814 29.0618C16.2619 28.9034 15.9449 29.3812 16.2619 29.698C17.0568 30.1758 18.0102 30.651 18.8076 31.1287C19.1271 31.2872 19.4441 30.6535 19.1271 30.4926Z" fill="#78573F"/>
<path d="M40.7559 65.1502C33.9187 69.1232 27.2373 72.9402 20.4 76.9132C20.0805 77.0716 20.4 77.7077 20.7195 77.5493C27.5568 73.5764 34.2382 69.7593 41.0754 65.7864C41.5508 65.628 41.0754 64.9918 40.7559 65.1502Z" fill="#78573F"/>
<path d="M18.6492 77.8661C17.8542 78.3439 16.9009 78.8191 16.1034 79.2969C15.7839 79.4553 16.1034 80.0915 16.4229 79.9331C17.2178 79.4553 18.1712 78.9801 18.9687 78.5023C19.4441 78.3439 19.1271 77.7077 18.6492 77.8661Z" fill="#78573F"/>
<path d="M59.6805 76.4379V99.8054C59.6805 100.283 60.3169 100.283 60.3169 99.8054V76.4379C60.3169 76.1186 59.6805 76.1186 59.6805 76.4379Z" fill="#78573F"/>
<path d="M59.6805 102.031V105.051C59.6805 105.528 60.3169 105.528 60.3169 105.051V102.031C60.3169 101.555 59.6805 101.555 59.6805 102.031Z" fill="#78573F"/>
<path d="M78.9246 65.7864C85.7618 69.7593 92.4432 73.5764 99.2805 77.5493C99.6 77.7077 99.9169 77.23 99.6 76.9132C92.7627 72.9402 86.0813 69.1232 79.2441 65.1502C78.9246 64.9918 78.4492 65.6255 78.9246 65.7864Z" fill="#78573F"/>
<path d="M100.873 78.5049C101.668 78.9827 102.621 79.4579 103.419 79.9356C103.738 80.094 104.055 79.6163 103.738 79.2995C102.943 78.8217 101.99 78.3465 101.192 77.8687C100.873 77.7103 100.556 78.3439 100.873 78.5049Z" fill="#78573F"/>
<path d="M79.2441 43.8472C86.0813 39.8743 92.7627 36.0572 99.6 32.0843C99.9195 31.9259 99.6 31.2897 99.2805 31.4481C92.4432 35.4236 85.7618 39.2381 78.9246 43.211C78.4492 43.3694 78.9246 44.0056 79.2441 43.8472Z" fill="#78573F"/>
<path d="M101.351 31.1313C102.146 30.6535 103.099 30.1783 103.897 29.7005C104.216 29.5421 103.897 28.9059 103.577 29.0644C102.782 29.5421 101.829 30.0173 101.031 30.4951C100.556 30.6535 100.873 31.2897 101.351 31.1313Z" fill="#78573F"/>
<path d="M75.7449 39.2381C78.4492 36.535 81.1534 33.8319 83.6966 31.2897C84.0161 30.9703 83.5381 30.4951 83.2186 30.8119C80.5144 33.5151 77.8101 36.2182 75.2669 38.7603C74.9474 39.0797 75.4254 39.5549 75.7449 39.2381Z" fill="#78573F"/>
<path d="M86.4008 28.5866C88.4686 26.5196 90.5364 24.4527 92.6042 22.3858C92.9237 22.0664 92.4458 21.5912 92.1263 21.908C90.0585 23.9749 87.9907 26.0419 85.9229 28.1088C85.6059 28.4282 86.0813 28.9034 86.4008 28.5866Z" fill="#78573F"/>
<path d="M54.5915 33.1957C53.6381 29.5396 52.6847 25.8835 51.7288 22.2274C51.5703 21.7496 50.9339 21.908 51.0924 22.3858C52.0457 26.0419 52.9991 29.698 53.9551 33.3541C54.1135 33.6735 54.75 33.5125 54.5915 33.1957Z" fill="#78573F"/>
<path d="M50.7754 18.7297C49.9805 15.8681 49.1856 13.0066 48.5492 10.3035C48.3907 9.82571 47.7542 9.98411 47.9127 10.4619C48.7076 13.3234 49.5025 16.1849 50.139 18.8881C50.2975 19.3658 50.9339 19.2074 50.7754 18.7297Z" fill="#78573F"/>
<path d="M38.8492 48.4589C35.1915 47.5059 31.5339 46.5529 27.8763 45.5973C27.3983 45.4389 27.2398 46.0751 27.7178 46.2335C31.3754 47.1865 35.0331 48.1395 38.6907 49.095C39.0076 49.2534 39.1661 48.6173 38.8492 48.4589Z" fill="#78573F"/>
<path d="M24.5356 44.6418C21.6729 43.8472 18.8102 43.0526 16.1059 42.4164C15.628 42.258 15.4695 42.8942 15.9475 43.0526C18.8102 43.8472 21.6729 44.6418 24.3771 45.278C24.6941 45.4364 24.8526 44.8002 24.5356 44.6418Z" fill="#78573F"/>
<path d="M44.2551 69.7593L36.3034 77.7077C35.9839 78.0271 36.4619 78.5023 36.7814 78.1855L44.7331 70.2371C45.0526 69.9177 44.5746 69.4425 44.2551 69.7593Z" fill="#78573F"/>
<path d="M33.5992 80.4109C31.5314 82.4778 29.4636 84.5447 27.3958 86.6117C27.0763 86.9311 27.5542 87.4063 27.8737 87.0895C29.9415 85.0225 32.0093 82.9556 34.0771 80.8886C34.3941 80.5693 33.9187 80.094 33.5992 80.4109Z" fill="#78573F"/>
<path d="M65.4085 75.8018C66.3619 79.4579 67.3152 83.114 68.2712 86.7701C68.4297 87.2479 69.0661 87.0895 68.9076 86.6117C67.9542 82.9556 67.0009 79.2995 66.0449 75.6434C65.8864 75.324 65.25 75.485 65.4085 75.8018Z" fill="#78573F"/>
<path d="M69.2246 90.2678C70.0195 93.1293 70.8144 95.9909 71.4508 98.694C71.6093 99.1717 72.2458 99.0133 72.0873 98.5356C71.2924 95.674 70.4975 92.8125 69.861 90.1094C69.7025 89.6316 69.0661 89.79 69.2246 90.2678Z" fill="#78573F"/>
<path d="M81.1508 60.5386C84.8085 61.4916 88.4661 62.4446 92.1237 63.4001C92.6017 63.5585 92.7601 62.9223 92.2822 62.7639C88.6245 61.8109 84.9669 60.858 81.3093 59.9024C80.9924 59.744 80.8339 60.3802 81.1508 60.5386Z" fill="#78573F"/>
<path d="M95.4644 64.3557C98.3271 65.1502 101.19 65.9448 103.894 66.581C104.372 66.7394 104.53 66.1032 104.053 65.9448C101.19 65.1502 98.3271 64.3557 95.6229 63.7195C95.3059 63.5611 95.1474 64.1973 95.4644 64.3557Z" fill="#78573F"/>
<path d="M72.8822 36.6934C78.6076 28.5866 84.333 20.3188 90.0585 12.212C90.378 11.8926 89.739 11.5758 89.422 11.8926C83.6966 19.9995 77.9712 28.2672 72.2458 36.374C72.0873 36.6934 72.7237 37.0102 72.8822 36.6934Z" fill="#78573F"/>
<path d="M91.0118 10.9397C92.2847 9.19208 93.3966 7.44195 94.6695 5.69438C94.989 5.37501 94.35 5.0582 94.033 5.37501C92.7601 7.12259 91.6483 8.87271 90.3754 10.6203C90.2169 10.9397 90.8534 11.2565 91.0118 10.9397Z" fill="#78573F"/>
<path d="M50.9364 34.3096C46.6424 25.2498 42.5068 16.1875 38.2127 7.12514C38.0542 6.80577 37.4178 7.12514 37.5763 7.44451C41.8703 16.5043 46.0059 25.5667 50.3 34.629C50.6169 35.1068 51.0949 34.7874 50.9364 34.3096Z" fill="#78573F"/>
<path d="M37.7347 5.85534C36.7814 3.94936 35.9865 2.04082 35.0305 0.132286C34.872 -0.187081 34.2356 0.132286 34.3941 0.451653C35.3475 2.35763 36.1424 4.26617 37.0983 6.17471C37.4152 6.49152 37.8932 6.17471 37.7347 5.85534Z" fill="#78573F"/>
<path d="M38.0517 52.2734C28.0322 51.4788 18.1712 50.5258 8.1517 49.7287C7.67373 49.7287 7.67373 50.3648 8.1517 50.3648C18.1712 51.1594 28.0322 52.1124 38.0517 52.9096C38.5297 52.9096 38.5297 52.2734 38.0517 52.2734Z" fill="#78573F"/>
<path d="M6.72034 49.4118C4.65254 49.2534 2.58475 49.0925 0.358478 48.9341C-0.119493 48.9341 -0.119493 49.5703 0.358478 49.5703C2.42628 49.7287 4.49407 49.8896 6.72034 50.048C7.03984 50.2064 7.03984 49.4118 6.72034 49.4118Z" fill="#78573F"/>
<path d="M47.1178 72.3041C41.3924 80.4109 35.667 88.6786 29.9415 96.7854C29.622 97.1048 30.261 97.4216 30.578 97.1048C36.3034 88.998 42.0288 80.7302 47.7542 72.6234C47.9127 72.3041 47.2763 71.9873 47.1178 72.3041Z" fill="#78573F"/>
<path d="M28.9881 98.0578C27.7153 99.8054 26.6034 101.555 25.3305 103.306C25.011 103.625 25.65 103.942 25.967 103.625C27.2398 101.877 28.3517 100.127 29.6246 98.3772C29.7831 98.0578 29.1466 97.741 28.9881 98.0578Z" fill="#78573F"/>
<path d="M69.0635 74.6878C73.3576 83.7476 77.4932 92.81 81.7873 101.872C81.9457 102.192 82.5822 101.872 82.4237 101.553C78.1296 92.4931 73.994 83.4308 69.7 74.3684C69.383 73.8907 68.9051 74.21 69.0635 74.6878Z" fill="#78573F"/>
<path d="M82.2652 103.145C83.2186 105.051 84.0135 106.959 84.9695 108.868C85.128 109.187 85.7644 108.868 85.6059 108.548C84.6525 106.642 83.8576 104.734 82.9017 102.825C82.5847 102.508 82.1068 102.825 82.2652 103.145Z" fill="#78573F"/>
<path d="M81.9483 56.7241C91.9678 57.5187 101.829 58.4716 111.848 59.2688C112.326 59.2688 112.326 58.6326 111.848 58.6326C101.829 57.838 91.9678 56.885 81.9483 56.0879C81.4703 56.0879 81.4703 56.7241 81.9483 56.7241Z" fill="#78573F"/>
<path d="M113.28 59.5856C115.347 59.744 117.415 59.905 119.642 60.0634C120.119 60.0634 120.119 59.4272 119.642 59.4272C117.574 59.2688 115.506 59.1078 113.28 58.9494C112.96 58.791 112.96 59.5856 113.28 59.5856Z" fill="#78573F"/>
<path d="M57.6153 32.5595C56.1839 22.7026 54.5941 12.6872 53.1627 2.8303C53.1627 2.35252 52.5263 2.51093 52.5263 2.9887C53.9576 12.8456 55.5475 22.861 56.9788 32.7179C56.9788 33.1957 57.6153 33.0373 57.6153 32.5595Z" fill="#78573F"/>
<path d="M39.8025 45.5973C30.4195 41.9412 21.1949 38.2851 11.8119 34.629C11.3339 34.4706 11.1754 35.1068 11.6534 35.2652C21.0365 38.9213 30.261 42.5774 39.6441 46.2335C39.9636 46.3919 40.2805 45.7557 39.8025 45.5973Z" fill="#78573F"/>
<path d="M42.1873 67.534C34.3941 73.7348 26.4424 79.9331 18.6492 86.2923C18.3297 86.6117 18.8076 87.0869 19.1271 86.7701C26.9203 80.5693 34.872 74.3684 42.6653 68.0118C42.9822 67.6924 42.5068 67.2172 42.1873 67.534Z" fill="#78573F"/>
<path d="M62.3847 76.4379C63.8161 86.2949 65.4059 96.3102 66.8373 106.167C66.8373 106.645 67.4737 106.487 67.4737 106.009C66.0424 96.1518 64.4525 86.1365 63.0212 76.2795C63.0212 75.8018 62.3847 75.9602 62.3847 76.4379Z" fill="#78573F"/>
<path d="M80.1974 63.4001C89.5805 67.0562 98.8051 70.7123 108.188 74.3684C108.666 74.5269 108.825 73.8907 108.347 73.7323C98.9635 70.0762 89.739 66.42 80.3559 62.7639C80.0364 62.6055 79.7195 63.2417 80.1974 63.4001Z" fill="#78573F"/>
<path d="M77.8127 41.4635C85.6059 35.2626 93.5576 29.0644 101.351 22.7051C101.67 22.3858 101.192 21.9105 100.873 22.2274C93.0797 28.4282 85.128 34.629 77.3347 40.9857C77.0178 41.305 77.4932 41.7803 77.8127 41.4635Z" fill="#78573F"/>
<path d="M63.1822 32.7179C63.9771 27.7894 64.6136 22.861 65.4085 17.7741C65.4085 17.2963 64.772 17.1379 64.772 17.6157C63.9771 22.5442 63.3407 27.4726 62.5458 32.5595C62.5458 33.0373 63.1822 33.1957 63.1822 32.7179Z" fill="#78573F"/>
<path d="M65.8839 16.1849C66.6788 11.2565 67.3152 6.328 68.1102 1.24113C68.1102 0.763355 67.4737 0.604949 67.4737 1.08272C66.6788 6.01119 66.0424 10.9397 65.2475 16.0265C65.089 16.3459 65.7229 16.6627 65.8839 16.1849Z" fill="#78573F"/>
<path d="M42.8237 40.8273C38.8492 37.6489 35.0305 34.6264 31.0559 31.4481C30.7364 31.1287 30.261 31.6065 30.578 31.9259C34.5551 35.1068 38.3712 38.1267 42.3458 41.305C42.6653 41.6244 43.1407 41.1466 42.8237 40.8273Z" fill="#78573F"/>
<path d="M29.6246 30.3342C25.65 27.1558 21.8314 24.1333 17.8568 20.955C17.5373 20.6356 17.0619 21.1134 17.3788 21.4328C21.356 24.6137 25.172 27.6336 29.1466 30.8119C29.6246 30.9703 30.1 30.4926 29.6246 30.3342Z" fill="#78573F"/>
<path d="M39.483 62.6055C34.872 64.5115 30.1 66.2616 25.489 68.1702C25.011 68.3286 25.3305 68.9648 25.6475 68.8064C30.2585 66.9004 35.0305 65.1502 39.6415 63.2417C40.1195 63.0833 39.961 62.4471 39.483 62.6055Z" fill="#78573F"/>
<path d="M23.8966 68.648C19.2856 70.5539 14.5136 72.3041 9.90255 74.2126C9.42458 74.371 9.74408 75.0072 10.061 74.8488C14.672 72.9428 19.4441 71.1927 24.0551 69.2841C24.3746 69.1257 24.2136 68.4895 23.8966 68.648Z" fill="#78573F"/>
<path d="M56.8178 76.2795C56.0229 81.208 55.3864 86.1365 54.5915 91.2233C54.5915 91.7011 55.228 91.8595 55.228 91.3818C56.0229 86.4533 56.6593 81.5248 57.4542 76.4379C57.4542 75.9602 56.8178 75.8018 56.8178 76.2795Z" fill="#78573F"/>
<path d="M54.1161 92.8125C53.3212 97.741 52.6847 102.669 51.8898 107.756C51.8898 108.234 52.5263 108.392 52.5263 107.915C53.3212 102.986 53.9576 98.0578 54.7525 92.9709C54.911 92.6515 54.2771 92.3347 54.1161 92.8125Z" fill="#78573F"/>
<path d="M77.1763 68.1702C81.1508 71.3511 84.9695 74.371 88.944 77.5493C89.2635 77.8687 89.739 77.3909 89.422 77.0716C85.4474 73.8907 81.6288 70.8707 77.6542 67.6924C77.3347 67.373 76.8593 67.8508 77.1763 68.1702Z" fill="#78573F"/>
<path d="M90.3754 78.6633C94.35 81.8442 98.1686 84.8641 102.143 88.0424C102.463 88.3618 102.938 87.884 102.621 87.5647C98.6466 84.3838 94.8279 81.3639 90.8534 78.1855C90.3754 78.0271 89.9 78.5049 90.3754 78.6633Z" fill="#78573F"/>
<path d="M80.5169 46.3919C85.128 44.4859 89.9 42.7358 94.511 40.8273C94.989 40.6689 94.6695 40.0327 94.3525 40.1911C89.7415 42.0971 84.9695 43.8472 80.3585 45.7557C79.8805 45.9142 80.039 46.5503 80.5169 46.3919Z" fill="#78573F"/>
<path d="M96.1034 40.3495C100.714 38.4435 105.486 36.6934 110.097 34.7849C110.575 34.6264 110.256 33.9903 109.939 34.1487C105.328 36.0547 100.556 37.8048 95.9449 39.7133C95.6254 39.8717 95.7864 40.5079 96.1034 40.3495Z" fill="#78573F"/>
<path d="M66.3619 33.5151C67.1568 30.6535 67.9517 27.6336 68.7466 24.7721C68.9051 24.2943 68.2686 24.1359 68.1102 24.6137C67.3152 27.4752 66.5203 30.4951 65.7254 33.3566C65.7254 33.6735 66.3619 33.8319 66.3619 33.5151Z" fill="#78573F"/>
<path d="M69.0635 23.3387C69.8585 20.4772 70.6534 17.4573 71.4483 14.5958C71.6068 14.118 70.9703 13.9596 70.8118 14.4374C70.0169 17.2989 69.222 20.3188 68.4271 23.1803C68.2686 23.6581 68.9051 23.8165 69.0635 23.3387Z" fill="#78573F"/>
<path d="M71.7678 13.4818C72.5627 10.6203 73.3576 7.60036 74.1525 4.73883C74.311 4.26106 73.6746 4.10265 73.5161 4.58043C72.7212 7.44195 71.9263 10.4619 71.1313 13.3234C70.9729 13.8012 71.6093 13.9596 71.7678 13.4818Z" fill="#78573F"/>
<path d="M44.8915 38.4435C42.8237 36.2182 40.5975 34.1512 38.5297 31.9259C38.2102 31.6065 37.7347 32.0843 38.0517 32.4037C40.1195 34.629 42.3458 36.6959 44.4136 38.9213C44.7305 39.2381 45.2085 38.7629 44.8915 38.4435Z" fill="#78573F"/>
<path d="M37.5763 31.1313C35.5085 28.906 33.2822 26.839 31.2144 24.6137C30.8949 24.2943 30.4195 24.7721 30.7364 25.0914C32.8042 27.3168 35.0305 29.3837 37.0983 31.6091C37.4178 31.9259 37.8932 31.4507 37.5763 31.1313Z" fill="#78573F"/>
<path d="M30.4195 23.8165C28.3517 21.5912 26.1254 19.5242 24.0576 17.2989C23.7381 16.9795 23.2627 17.4573 23.5797 17.7767C25.6475 20.002 27.8737 22.0689 29.9415 24.2943C30.261 24.6137 30.7364 24.1359 30.4195 23.8165Z" fill="#78573F"/>
<path d="M38.5297 59.4272C35.667 60.2218 32.6458 61.0164 29.7831 61.8109C29.3051 61.9694 29.4636 62.6055 29.9415 62.4471C32.8042 61.6525 35.8254 60.858 38.6881 60.0634C39.1661 60.0634 39.0076 59.4272 38.5297 59.4272Z" fill="#78573F"/>
<path d="M28.5102 62.2887C25.6475 63.0833 22.6263 63.8779 19.7636 64.6725C19.2856 64.8309 19.4441 65.4671 19.922 65.3086C22.7848 64.5141 25.8059 63.7195 28.6686 62.9249C29.1466 62.7665 28.8271 62.1303 28.5102 62.2887Z" fill="#78573F"/>
<path d="M18.6492 64.8334C15.7864 65.628 12.7653 66.4226 9.90255 67.2172C9.42458 67.3756 9.58305 68.0118 10.061 67.8534C12.9237 67.0588 15.9449 66.2642 18.8076 65.4696C19.2856 65.3112 18.9661 64.675 18.6492 64.8334Z" fill="#78573F"/>
<path d="M53.6381 75.4824C52.8432 78.3439 52.0483 81.3639 51.2534 84.2254C51.0949 84.7032 51.7314 84.8616 51.8898 84.3838C52.6847 81.5223 53.4797 78.5023 54.2746 75.6408C54.2746 75.324 53.6381 75.1656 53.6381 75.4824Z" fill="#78573F"/>
<path d="M50.9364 85.6587C50.1415 88.5202 49.3466 91.5402 48.5517 94.4017C48.3932 94.8795 49.0297 95.0379 49.1881 94.5601C49.9831 91.6986 50.778 88.6786 51.5729 85.8171C51.7314 85.3393 51.0949 85.1809 50.9364 85.6587Z" fill="#78573F"/>
<path d="M48.2322 95.5156C47.4373 98.3772 46.6424 101.397 45.8475 104.259C45.689 104.736 46.3254 104.895 46.4839 104.417C47.2788 101.556 48.0737 98.5356 48.8687 95.674C49.0271 95.1963 48.3907 95.0379 48.2322 95.5156Z" fill="#78573F"/>
<path d="M75.1085 70.5539C77.1763 72.7793 79.4025 74.8462 81.4703 77.0716C81.7898 77.3909 82.2652 76.9132 81.9483 76.5938C79.8805 74.3684 77.6542 72.3015 75.5864 70.0762C75.2695 69.7593 74.7915 70.2346 75.1085 70.5539Z" fill="#78573F"/>
<path d="M82.4237 77.8661C84.4915 80.0915 86.7178 82.1584 88.7856 84.3838C89.1051 84.7032 89.5805 84.2254 89.2635 83.906C87.1958 81.6807 84.9695 79.6137 82.9017 77.3884C82.5822 77.0716 82.1068 77.5468 82.4237 77.8661Z" fill="#78573F"/>
<path d="M89.5805 85.1809C91.6483 87.4063 93.8746 89.4732 95.9424 91.6986C96.2619 92.0179 96.7373 91.5402 96.4203 91.2208C94.3525 88.9954 92.1263 86.9285 90.0585 84.7032C89.739 84.3838 89.2635 84.8616 89.5805 85.1809Z" fill="#78573F"/>
<path d="M81.4703 49.5703C84.333 48.7757 87.3542 47.9811 90.2169 47.1865C90.6949 47.0281 90.5364 46.3919 90.0585 46.5503C87.1958 47.3449 84.1746 48.1395 81.3119 48.9341C80.8339 48.9341 80.9924 49.5703 81.4703 49.5703Z" fill="#78573F"/>
<path d="M91.4898 46.7087C94.3525 45.9141 97.3737 45.1196 100.236 44.325C100.714 44.1666 100.556 43.5304 100.078 43.6888C97.2152 44.4834 94.194 45.278 91.3313 46.0726C90.8534 46.231 91.1729 46.8671 91.4898 46.7087Z" fill="#78573F"/>
<path d="M101.351 44.164C104.214 43.3694 107.235 42.5748 110.097 41.7803C110.575 41.6219 110.417 40.9857 109.939 41.1441C107.076 41.9387 104.055 42.7333 101.192 43.5278C100.714 43.6862 101.034 44.3224 101.351 44.164Z" fill="#78573F"/>
<path d="M69.861 34.6264C72.2458 29.3786 74.472 24.1333 76.8593 18.8881C77.0178 18.5687 76.3814 18.0935 76.2229 18.5687C73.8381 23.8165 71.6119 29.0618 69.2246 34.3071C69.0661 34.6264 69.7025 35.1017 69.861 34.6264Z" fill="#78573F"/>
<path d="M77.4958 17.1405C79.8805 11.8926 82.1068 6.64737 84.4941 1.40209C84.6525 1.08272 84.0161 0.607504 83.8576 1.08272C81.4729 6.328 79.2466 11.5758 76.8593 16.8211C76.7008 17.1405 77.3347 17.4573 77.4958 17.1405Z" fill="#78573F"/>
<path d="M47.7542 36.0572C44.4136 31.4481 40.917 26.678 37.5763 22.0689C37.2568 21.7496 36.7814 22.0689 36.9398 22.3883C40.2805 26.9974 43.7771 31.7675 47.1178 36.3766C47.4347 36.6959 47.9127 36.3766 47.7542 36.0572Z" fill="#78573F"/>
<path d="M36.3034 20.6356C32.9627 16.0265 29.4661 11.2565 26.1254 6.64737C25.8059 6.328 25.3305 6.64737 25.489 6.96673C28.8297 11.5758 32.3263 16.3459 35.667 20.955C35.9839 21.4328 36.6203 20.955 36.3034 20.6356Z" fill="#78573F"/>
<path d="M37.8932 55.9295C32.1678 56.5657 26.4424 57.2018 20.717 57.8355C20.239 57.8355 20.239 58.6301 20.717 58.4716C26.4424 57.8355 32.1678 57.1993 37.8932 56.5657C38.3712 56.5657 38.3712 55.9295 37.8932 55.9295Z" fill="#78573F"/>
<path d="M18.8076 57.9964C13.0822 58.6326 7.35678 59.2688 1.63136 59.9024C1.15339 59.9024 1.15339 60.697 1.63136 60.5386C7.35678 59.9024 13.0822 59.2662 18.8076 58.6326C19.2856 58.6326 19.2856 57.9964 18.8076 57.9964Z" fill="#78573F"/>
<path d="M50.139 74.371C47.7542 79.6188 45.528 84.8641 43.1407 90.1094C42.9822 90.4288 43.6186 90.904 43.7771 90.4288C46.1619 85.1809 48.3881 79.9356 50.7754 74.6904C50.9339 74.371 50.2975 73.8958 50.139 74.371Z" fill="#78573F"/>
<path d="M42.5042 91.857C40.1195 97.1048 37.8932 102.35 35.5059 107.595C35.3475 107.915 35.9839 108.39 36.1424 107.915C38.5271 102.667 40.7534 97.4216 43.1407 92.1763C43.2991 91.857 42.6653 91.5402 42.5042 91.857Z" fill="#78573F"/>
<path d="M72.2458 72.9402C75.5864 77.5493 79.083 82.3194 82.4237 86.9285C82.7432 87.2479 83.2186 86.9285 83.0602 86.6091C79.7195 82 76.2229 77.23 72.8822 72.6209C72.5653 72.3015 72.0873 72.6209 72.2458 72.9402Z" fill="#78573F"/>
<path d="M83.6966 88.3618C87.0373 92.9709 90.5339 97.741 93.8746 102.35C94.1941 102.669 94.6695 102.35 94.511 102.031C91.1703 97.4216 87.6737 92.6515 84.333 88.0424C84.0161 87.5647 83.3797 88.0424 83.6966 88.3618Z" fill="#78573F"/>
<path d="M82.1068 53.068C87.8322 52.4318 93.5576 51.7956 99.283 51.162C99.761 51.162 99.761 50.3674 99.283 50.5258C93.5576 51.162 87.8322 51.7982 82.1068 52.4318C81.6288 52.4318 81.6288 53.068 82.1068 53.068Z" fill="#78573F"/>
<path d="M101.192 51.001C106.918 50.3648 112.643 49.7287 118.369 49.095C118.847 49.095 118.847 48.3005 118.369 48.4589C112.643 49.095 106.918 49.7312 101.192 50.3648C100.714 50.3648 100.714 51.001 101.192 51.001Z" fill="#78573F"/>
</svg>
